<svg width="29" height="32" viewBox="0 0 29 32" fill="none" xmlns="http://www.w3.org/2000/svg">
<path fill-rule="evenodd" clip-rule="evenodd" d="M25.3886 8.83525L16.7078 2.64581C15.3675 1.69016 13.5685 1.69016 12.2282 2.64581L3.54738 8.83525C2.53192 9.55927 1.92907 10.7295 1.92907 11.9766V26.1688C1.92907 28.2996 3.65641 30.027 5.7872 30.027H23.1488C25.2796 30.027 27.007 28.2996 27.007 26.1688L27.007 11.9766C27.007 10.7295 26.4041 9.55927 25.3886 8.83525ZM17.8278 1.07511C15.8173 -0.35837 13.1187 -0.358368 11.1083 1.07511L2.42746 7.26455C0.904272 8.35059 0 10.1059 0 11.9766V26.1688C0 29.365 2.59102 31.956 5.7872 31.956H23.1488C26.345 31.956 28.936 29.365 28.936 26.1688L28.936 11.9766C28.936 10.1059 28.0317 8.35059 26.5086 7.26455L17.8278 1.07511Z" fill="black"/>
<path d="M11.0807 28.9437C10.8012 28.5815 10.6859 28.1155 10.7643 27.6649C10.845 27.2001 11.1159 26.8118 11.4882 26.5714C11.3063 26.2609 11.2221 25.8982 11.2537 25.5347C11.3176 24.799 11.8186 24.2099 12.4902 24.0103C12.2989 23.6833 12.2152 23.2999 12.2609 22.9192C12.325 22.3828 12.6289 21.9278 13.0564 21.6539C12.8412 21.3707 12.7117 21.0187 12.7117 20.6361C12.7117 20.263 12.835 19.9174 13.0421 19.6368C12.9837 19.6398 12.9245 19.6416 12.8645 19.6416C12.3061 19.6416 11.7941 19.5027 11.3439 19.2333C11.2511 19.5813 11.1202 19.9707 10.9358 20.3611C10.5083 21.2666 9.91399 21.9369 9.17894 22.3603L6.99283 30.9918L10.5702 31.4741L11.8222 29.4808C11.5317 29.3759 11.2724 29.1919 11.0807 28.9437Z" fill="black"/>
<path fill-rule="evenodd" clip-rule="evenodd" d="M11.4058 13.8956L11.8457 12.4224C10.5912 11.2418 10.0676 9.39352 10.6041 7.59657C11.0515 6.09831 12.2675 5.01755 13.5344 4.49278C13.6791 4.43324 13.8421 4.46249 13.9546 4.56901C14.0678 4.67621 14.1096 4.84069 14.0636 4.99461L13.4008 7.21417C13.1891 7.9233 13.5809 8.63931 14.2652 8.84363L15.6421 9.25479C16.3264 9.45911 17.0442 9.07394 17.2558 8.36525L17.9182 6.14699C17.964 5.99352 18.09 5.87912 18.2434 5.85154C18.3959 5.82414 18.5488 5.88874 18.6367 6.0182C19.4056 7.15038 19.8311 8.72129 19.384 10.2187C18.8475 12.0156 17.3672 13.2656 15.7006 13.5739L14.4633 17.7175L11.4058 13.8956Z" fill="black"/>
<path d="M16.5325 19.4847C16.5127 19.4847 16.4927 19.4854 16.4726 19.4865C15.867 19.5224 15.1088 19.5671 14.4926 19.6033C14.4405 19.6063 14.3877 19.6095 14.3379 19.6123C13.7955 19.6439 13.3719 20.0932 13.3719 20.6365C13.3719 20.9428 13.5062 21.2148 13.7164 21.4019C13.8078 21.387 13.9011 21.3779 13.9965 21.3779C14.0019 21.3779 14.0073 21.3784 14.0127 21.3784C14.0429 21.3787 14.0732 21.3793 14.1036 21.3812C14.7306 21.4193 15.5358 21.4679 16.2045 21.508L16.6182 21.4717C17.1322 21.4266 17.5266 20.9961 17.5266 20.4802C17.5267 19.9273 17.0778 19.4847 16.5325 19.4847Z" fill="black"/>
<path d="M16.3292 22.177C16.2919 22.1748 16.2521 22.1724 16.2138 22.17C15.5358 22.1294 14.7061 22.0794 14.0638 22.0404C14.0412 22.039 14.019 22.0383 13.9968 22.0383C13.9405 22.0383 13.8852 22.0437 13.8308 22.0521C13.7478 22.065 13.6675 22.0867 13.5915 22.1175C13.2338 22.2618 12.9653 22.591 12.9166 22.9981C12.872 23.3702 13.021 23.7168 13.28 23.9447C13.2932 23.945 13.3057 23.9455 13.319 23.9458C13.9525 23.9636 14.7066 23.9845 15.3142 24.0012C15.6359 24.0101 15.9466 24.1122 16.2118 24.287L16.2327 24.2876C16.2442 24.2879 16.2553 24.2881 16.2665 24.2881C16.7993 24.2881 17.2514 23.8898 17.315 23.357C17.387 22.7534 16.9362 22.2135 16.3292 22.177Z" fill="black"/>
<path d="M15.2958 24.6607C14.6357 24.6426 13.8049 24.6196 13.1415 24.6009C13.1127 24.6001 13.0831 24.5993 13.055 24.5983C13.0459 24.598 13.0361 24.5978 13.027 24.5975C13.0166 24.5972 13.0061 24.597 12.9956 24.597C12.4329 24.597 11.9605 25.0277 11.9115 25.5917C11.8875 25.867 11.9683 26.1254 12.1189 26.3303C12.2023 26.3171 12.2872 26.3091 12.3742 26.3091C12.4361 26.3091 12.4988 26.3128 12.5607 26.3198C12.597 26.3239 12.6359 26.3284 12.6733 26.3326C13.2617 26.3998 13.9952 26.4829 14.5789 26.5489C14.811 26.5753 15.0324 26.6537 15.2295 26.773H15.2677C15.8154 26.7725 16.2719 26.3536 16.3194 25.808C16.3489 25.4679 16.2142 25.1533 15.9828 24.9397C15.8021 24.7732 15.5624 24.668 15.2958 24.6607Z" fill="black"/>
<path d="M15.021 27.4332C14.8814 27.3106 14.7043 27.2274 14.5047 27.2049C14.2319 27.174 13.9256 27.1394 13.6169 27.1043C13.228 27.0602 12.8354 27.0156 12.4991 26.9772C12.4948 26.9767 12.4901 26.9761 12.4858 26.9756C12.4563 26.9723 12.4269 26.9713 12.3977 26.9705C12.39 26.9703 12.382 26.9692 12.3742 26.9692C12.2184 26.9692 12.0694 27.0073 11.9364 27.0744C11.6703 27.209 11.4695 27.4628 11.415 27.7773C11.3353 28.2362 11.5898 28.6704 11.9948 28.8418C12.0872 28.8808 12.1873 28.9065 12.2932 28.9154L14.3182 29.0868C14.3453 29.089 14.3721 29.0903 14.3988 29.0903C14.8542 29.0903 15.2505 28.7626 15.3297 28.3064C15.3885 27.968 15.2597 27.6429 15.021 27.4332Z" fill="black"/>
<path d="M8.32332 22.7234L8.42536 22.3425L8.53136 21.9468C8.89285 21.7893 9.19802 21.5746 9.45827 21.3274C10.7881 20.0641 10.9055 17.9251 10.9055 17.9251C11.4882 18.7519 12.2257 18.981 12.8645 18.981C13.6604 18.981 14.3034 18.6251 14.3034 18.6251L11.2216 14.8048L11.2099 14.7902L7.16203 15.8858L4.22833 21.3336L3.88302 21.5177L3.53771 21.7017L0.4823 23.331V23.9686C0.4823 26.1001 1.24972 28.1044 2.57224 29.6637L7.09284 27.3173L8.32332 22.7234Z" fill="black"/>
</svg>
